<?xml version="1.0" encoding="utf-8"?>
<!-- Generator: Adobe Illustrator 13.0.0, SVG Export Plug-In . SVG Version: 6.00 Build 14948)  -->
<!DOCTYPE svg PUBLIC "-//W3C//DTD SVG 1.1//EN" "http://www.w3.org/Graphics/SVG/1.1/DTD/svg11.dtd">
<svg version="1.1" id="Layer_1" xmlns="http://www.w3.org/2000/svg" xmlns:xlink="http://www.w3.org/1999/xlink" x="0px" y="0px"
	 width="120px" height="64px" viewBox="0 0 120 64" enable-background="new 0 0 120 64" xml:space="preserve">
<g>
	<path fill="#303030" d="M16.176,50.094c0,0.636-0.04,1.124-0.12,1.464c-0.079,0.34-0.184,0.578-0.314,0.716
		c-0.13,0.137-0.322,0.26-0.575,0.368s-0.55,0.202-0.889,0.281c-0.339,0.08-0.708,0.142-1.105,0.186
		c-0.397,0.043-0.798,0.064-1.203,0.064c-1.084,0-2.023-0.137-2.818-0.412c-0.794-0.274-1.453-0.697-1.973-1.269
		c-0.521-0.57-0.903-1.289-1.149-2.156C5.783,48.47,5.66,47.443,5.66,46.258V36.35H3.341c-0.274,0-0.484-0.17-0.629-0.51
		c-0.144-0.34-0.216-0.907-0.216-1.701c0-0.42,0.018-0.773,0.054-1.063c0.037-0.289,0.091-0.517,0.163-0.684
		c0.072-0.166,0.163-0.285,0.271-0.357c0.109-0.072,0.234-0.108,0.379-0.108H5.66v-4.314c0-0.144,0.04-0.274,0.12-0.39
		c0.08-0.116,0.224-0.213,0.433-0.292c0.209-0.079,0.492-0.137,0.845-0.174c0.354-0.036,0.792-0.054,1.313-0.054
		c0.535,0,0.979,0.019,1.333,0.054c0.354,0.037,0.632,0.094,0.834,0.174c0.203,0.08,0.347,0.177,0.434,0.292s0.13,0.246,0.13,0.39
		v4.314h4.206c0.144,0,0.271,0.037,0.379,0.108c0.109,0.072,0.199,0.191,0.271,0.357c0.073,0.167,0.127,0.395,0.163,0.684
		c0.036,0.289,0.054,0.643,0.054,1.063c0,0.794-0.072,1.361-0.217,1.701c-0.144,0.34-0.354,0.51-0.628,0.51h-4.228v9.084
		c0,1.055,0.167,1.846,0.499,2.373c0.333,0.528,0.925,0.792,1.778,0.792c0.289,0,0.549-0.025,0.78-0.076
		c0.232-0.051,0.438-0.108,0.618-0.173c0.181-0.065,0.333-0.123,0.455-0.175c0.124-0.05,0.235-0.075,0.336-0.075
		c0.087,0,0.169,0.025,0.249,0.075c0.08,0.052,0.141,0.153,0.184,0.305c0.044,0.152,0.083,0.357,0.12,0.617
		C16.158,49.356,16.176,49.689,16.176,50.094z"/>
	<path fill="#303030" d="M38.592,52.002c0,0.145-0.042,0.271-0.13,0.38c-0.086,0.108-0.231,0.198-0.433,0.271
		c-0.202,0.071-0.48,0.125-0.835,0.162c-0.354,0.036-0.791,0.055-1.312,0.055c-0.535,0-0.979-0.019-1.333-0.055
		c-0.354-0.037-0.632-0.091-0.834-0.162c-0.202-0.073-0.347-0.163-0.434-0.271s-0.13-0.235-0.13-0.38V40.967
		c0-0.939-0.068-1.676-0.206-2.211c-0.138-0.535-0.336-0.993-0.597-1.377c-0.259-0.384-0.596-0.68-1.008-0.889
		c-0.412-0.21-0.892-0.313-1.442-0.313c-0.693,0-1.395,0.252-2.103,0.758c-0.708,0.506-1.445,1.243-2.211,2.211v12.856
		c0,0.145-0.043,0.271-0.129,0.38c-0.087,0.107-0.235,0.198-0.444,0.271c-0.21,0.071-0.488,0.125-0.835,0.161
		c-0.347,0.037-0.787,0.055-1.322,0.055c-0.534,0-0.975-0.018-1.322-0.055c-0.347-0.036-0.625-0.09-0.834-0.161
		c-0.209-0.073-0.357-0.164-0.445-0.271c-0.086-0.109-0.13-0.235-0.13-0.38V4.99c0-0.145,0.043-0.274,0.13-0.39
		c0.087-0.116,0.235-0.213,0.445-0.292c0.21-0.08,0.487-0.141,0.834-0.185c0.347-0.043,0.788-0.065,1.322-0.065
		c0.535,0,0.976,0.022,1.322,0.065c0.347,0.044,0.625,0.104,0.835,0.185c0.209,0.08,0.357,0.176,0.444,0.292
		c0.086,0.116,0.129,0.246,0.129,0.39v29.19c0.939-0.924,1.897-1.614,2.873-2.07c0.976-0.455,1.991-0.683,3.046-0.683
		c1.315,0,2.425,0.217,3.328,0.651c0.903,0.434,1.633,1.026,2.19,1.778c0.556,0.752,0.957,1.629,1.203,2.634
		c0.246,1.004,0.368,2.223,0.368,3.653V52.002L38.592,52.002z"/>
	<path fill="#303030" d="M49.411,52.002c0,0.145-0.043,0.271-0.13,0.38c-0.086,0.108-0.235,0.198-0.445,0.271
		c-0.209,0.071-0.487,0.125-0.834,0.162c-0.347,0.036-0.788,0.055-1.323,0.055c-0.535,0-0.975-0.019-1.322-0.055
		c-0.347-0.037-0.625-0.091-0.834-0.162c-0.21-0.073-0.358-0.163-0.445-0.271c-0.086-0.108-0.13-0.235-0.13-0.38V32.707
		c0-0.145,0.043-0.271,0.13-0.379c0.087-0.108,0.235-0.202,0.445-0.282c0.209-0.08,0.487-0.141,0.834-0.185s0.788-0.065,1.322-0.065
		c0.535,0,0.976,0.021,1.323,0.065c0.346,0.043,0.625,0.105,0.834,0.185s0.358,0.174,0.445,0.282c0.087,0.108,0.13,0.235,0.13,0.379
		V52.002z"/>
	<path fill="#303030" d="M73.324,52.002c0,0.145-0.044,0.271-0.13,0.38c-0.087,0.108-0.232,0.198-0.435,0.271
		c-0.202,0.071-0.48,0.125-0.835,0.162c-0.354,0.036-0.791,0.055-1.312,0.055c-0.534,0-0.979-0.019-1.333-0.055
		c-0.354-0.037-0.632-0.091-0.834-0.162c-0.202-0.073-0.348-0.163-0.434-0.271c-0.088-0.108-0.13-0.235-0.13-0.38V40.967
		c0-0.939-0.069-1.676-0.207-2.211c-0.137-0.535-0.336-0.993-0.596-1.377c-0.261-0.383-0.596-0.68-1.009-0.889
		c-0.411-0.21-0.892-0.313-1.441-0.313c-0.693,0-1.395,0.252-2.103,0.758s-1.445,1.243-2.211,2.211v12.856
		c0,0.145-0.043,0.271-0.13,0.38c-0.087,0.107-0.235,0.198-0.444,0.271c-0.21,0.071-0.488,0.125-0.835,0.161
		c-0.346,0.037-0.788,0.055-1.322,0.055c-0.534,0-0.975-0.018-1.322-0.055c-0.347-0.036-0.625-0.09-0.835-0.161
		c-0.209-0.073-0.357-0.164-0.444-0.271c-0.087-0.109-0.13-0.235-0.13-0.38V32.664c0-0.146,0.036-0.271,0.108-0.38
		c0.072-0.108,0.202-0.199,0.39-0.271c0.188-0.072,0.43-0.126,0.727-0.162c0.296-0.036,0.668-0.055,1.117-0.055
		c0.462,0,0.845,0.019,1.149,0.055c0.303,0.036,0.538,0.09,0.705,0.162c0.166,0.072,0.285,0.162,0.357,0.271
		c0.072,0.109,0.108,0.235,0.108,0.38v2.232c1.07-1.155,2.157-2.023,3.262-2.602c1.106-0.579,2.259-0.867,3.459-0.867
		c1.314,0,2.424,0.217,3.327,0.65c0.904,0.434,1.634,1.022,2.19,1.768c0.556,0.743,0.958,1.614,1.203,2.611
		c0.246,0.998,0.368,2.198,0.368,3.599L73.324,52.002L73.324,52.002z"/>
	<path fill="#303030" d="M96.828,52.2c0,0.145-0.04,0.271-0.119,0.38s-0.225,0.195-0.434,0.261c-0.21,0.064-0.496,0.115-0.856,0.152
		c-0.361,0.034-0.831,0.053-1.409,0.053c-0.594,0-1.073-0.015-1.442-0.043c-0.368-0.029-0.672-0.076-0.911-0.141
		c-0.237-0.066-0.421-0.155-0.552-0.271c-0.131-0.116-0.246-0.268-0.348-0.456l-6.438-10.19v10.233c0,0.145-0.043,0.271-0.13,0.38
		s-0.234,0.198-0.444,0.271c-0.209,0.073-0.487,0.126-0.835,0.163c-0.347,0.035-0.787,0.054-1.322,0.054s-0.976-0.019-1.322-0.054
		c-0.348-0.037-0.626-0.09-0.835-0.163c-0.21-0.072-0.357-0.162-0.444-0.271s-0.13-0.235-0.13-0.38V4.99
		c0-0.145,0.043-0.274,0.13-0.39c0.087-0.116,0.234-0.213,0.444-0.292c0.209-0.08,0.487-0.141,0.835-0.185
		c0.347-0.043,0.787-0.065,1.322-0.065s0.976,0.022,1.322,0.065c0.348,0.044,0.626,0.104,0.835,0.185
		c0.21,0.08,0.357,0.176,0.444,0.292c0.087,0.116,0.13,0.246,0.13,0.39v35.655l5.724-7.697c0.116-0.173,0.246-0.325,0.39-0.455
		c0.146-0.13,0.337-0.231,0.575-0.304c0.239-0.072,0.536-0.126,0.89-0.163c0.353-0.036,0.806-0.054,1.354-0.054
		c0.535,0,0.986,0.019,1.354,0.054c0.369,0.037,0.665,0.091,0.89,0.163c0.223,0.072,0.379,0.163,0.466,0.271
		c0.087,0.108,0.129,0.242,0.129,0.401c0,0.216-0.053,0.447-0.161,0.693c-0.109,0.246-0.271,0.506-0.488,0.78l-5.658,6.418
		l6.548,10.124c0.173,0.289,0.3,0.539,0.379,0.749C96.788,51.836,96.828,52.027,96.828,52.2z"/>
	<path fill="#303030" d="M111.198,52.739l-2.341,6.852c-0.131,0.36-0.484,0.621-1.063,0.779c-0.578,0.16-1.425,0.239-2.537,0.239
		c-0.578,0-1.04-0.025-1.388-0.076c-0.347-0.05-0.607-0.134-0.78-0.249c-0.174-0.116-0.267-0.26-0.282-0.434
		c-0.015-0.173,0.029-0.383,0.131-0.629l2.579-6.481c-0.188-0.086-0.357-0.221-0.509-0.401s-0.264-0.372-0.336-0.574l-6.656-17.777
		c-0.188-0.507-0.281-0.893-0.281-1.161c0-0.267,0.086-0.476,0.26-0.628c0.174-0.151,0.466-0.256,0.878-0.314
		c0.412-0.058,0.958-0.087,1.637-0.087c0.622,0,1.113,0.011,1.475,0.033c0.361,0.021,0.643,0.076,0.846,0.162
		c0.202,0.087,0.354,0.221,0.455,0.401c0.101,0.181,0.203,0.437,0.304,0.77l4.553,12.943h0.064l4.163-13.204
		c0.086-0.375,0.199-0.625,0.336-0.747c0.138-0.123,0.365-0.214,0.683-0.271c0.318-0.058,0.875-0.087,1.67-0.087
		c0.621,0,1.139,0.029,1.55,0.087c0.412,0.058,0.715,0.166,0.911,0.325c0.194,0.159,0.292,0.372,0.292,0.639
		s-0.058,0.582-0.174,0.943L111.198,52.739z"/>
</g>
<path fill="#FFFFFF" d="M43.165,15.815c1.718,2.302,2.529,5.947,1.54,8.054c-0.153,0.326-0.234,0.597-0.455,0.875
	c-0.258,0.325,0.013,0.041-0.315,0.28c-2.31,1.688-7.256,1.223-10.576-0.7c-0.538-0.312-1.187-1.147-1.646-1.716
	c-2.114-2.622-2.395-6.366-0.689-8.517c2.076-2.617,5.662-2.304,10.214-0.063C42.044,14.426,42.652,15.129,43.165,15.815z"/>
<ellipse fill="#FFFFFF" cx="47.638" cy="28.403" rx="1.243" ry="1.647"/>
<ellipse transform="matrix(0.6367 0.7711 -0.7711 0.6367 37.8183 -26.0623)" fill="#FFFFFF" cx="46.567" cy="27.102" rx="1.129" ry="3.065"/>
<path fill="#FFFFFF" d="M47.267,23.147c0.657,0.656,0.029,2.264-1.403,3.591c-1.431,1.328-3.125,1.872-3.783,1.216
	c-0.658-0.656-0.03-2.264,1.402-3.591C44.915,23.036,46.609,22.492,47.267,23.147z"/>
<path fill="#ABD373" d="M35.806,9.863c-2.084-0.251-6.441-0.343-8.055,5.376c-1.618,5.736,2.061,10.657,8.147,12.207
	c3.424,0.871,9.71-0.312,10.239-5.16C46.878,15.504,42.528,10.672,35.806,9.863z"/>
<path fill="none" stroke="#303030" d="M42.014,25.644c0,0-0.827,2.036,0,2.482c0.828,0.446,2.673-0.637,2.673-0.637
	s-1.336,1.336-0.446,1.909c0.891,0.573,2.164-0.763,2.164-0.763s0.509,2.037,1.909,1.336c1.4-0.7,0.064-2.864,0.064-2.864
	s1.209-1.655,0.7-2.164c-0.509-0.509-2.609,0.446-2.609,0.446s1.527-1.528,0.827-2.164c-0.7-0.637-2.227-0.254-2.227-0.254
	s0.191-5.728-2.673-8.273c-2.863-2.546-9.418-3.437-11.391-0.637s-1.019,8.337,2.228,10.374
	C36.478,26.471,42.014,25.644,42.014,25.644z"/>
<path fill="none" stroke="#303030" stroke-width="0.5" d="M38.686,22.405c0.917,0.285,4.474,1.838,4.474,1.838
	s-1.716-2.375-2.195-3.254c-0.62-1.141-2.398-5.713-2.398-5.713l0.321,4.449l-1.573-0.356l0.66,1.505c0,0-1.52,0.047-2.122,0.07
	c-0.764,0.03-3.054-0.044-3.054-0.044S38.043,22.206,38.686,22.405z"/>
<line fill="none" stroke="#303030" stroke-width="2" stroke-linecap="round" x1="36.096" y1="4.897" x2="38.26" y2="8.715"/>
<line fill="none" stroke="#303030" stroke-width="2" stroke-linecap="round" x1="46.406" y1="7.633" x2="43.924" y2="11.197"/>
<line fill="none" stroke="#303030" stroke-width="2" stroke-linecap="round" x1="51.497" y1="15.97" x2="47.806" y2="17.562"/>
</svg>
