<?xml version="1.0" encoding="utf-8"?>
<!-- Generator: Adobe Illustrator 13.0.0, SVG Export Plug-In . SVG Version: 6.00 Build 14948)  -->
<!DOCTYPE svg PUBLIC "-//W3C//DTD SVG 1.1//EN" "http://www.w3.org/Graphics/SVG/1.1/DTD/svg11.dtd">
<svg version="1.1" id="Layer_1" xmlns="http://www.w3.org/2000/svg" xmlns:xlink="http://www.w3.org/1999/xlink" x="0px" y="0px"
	 width="100px" height="72.222px" viewBox="0 0 100 72.222" enable-background="new 0 0 100 72.222" xml:space="preserve">
<path fill="#FFFFFF" stroke="#FFFFFF" d="M39.556,17.778c0,0-8-6-16-2s-1.778,17.777-1.778,17.777
	c-0.775-0.582-7.025-10.086-13.111-4c-3.333,3.333-3.778,15.333,4.222,14.889S-2.223,45.778,3.333,52
	c6.507,7.288,20.087,18.377,27.333,5.555c2.889-5.111,3.777-1.778,6.222,6.444c2.445,8.222,19.334,7.557,27.333,3.334
	s9.555-12,7.555-16.889S74,60,80.889,59.555s26.445-12.444,8.667-28.667s-25.333-5.333-25.778-3.778
	c-2.521,8.827,2.889-28.222-12-24.222C39.991,6.055,39.556,17.778,39.556,17.778z"/>
</svg>
