<?xml version="1.0" encoding="utf-8"?>
<!-- Generator: Adobe Illustrator 13.0.0, SVG Export Plug-In . SVG Version: 6.00 Build 14948)  -->
<!DOCTYPE svg PUBLIC "-//W3C//DTD SVG 1.1//EN" "http://www.w3.org/Graphics/SVG/1.1/DTD/svg11.dtd">
<svg version="1.1" id="moon" xmlns="http://www.w3.org/2000/svg" xmlns:xlink="http://www.w3.org/1999/xlink" x="0px" y="0px"
	 width="384.823px" height="516px" viewBox="0 0 384.823 516" enable-background="new 0 0 384.823 516" xml:space="preserve">
<rect x="-75.807" y="-84.58" fill="none" width="520.522" height="524.204"/>
<path fill="#FFFEDF" d="M384.823,258c0,142.489-115.511,258-258,258c-19.376,0-38.254-2.136-56.411-6.186
	c-28.839-6.433-31.884-31.013-31.884-31.013S173.823,364.334,173.823,272C173.823,182.439,0,43.909,0,43.909
	s6.735-14.722,19.064-20.397C51.856,8.418,88.356,0,126.823,0C269.312,0,384.823,115.511,384.823,258z"/>
<ellipse fill="#EAE9CA" cx="295.323" cy="386.5" rx="28.5" ry="26.5"/>
<circle fill="#EAE9CA" cx="290.323" cy="298.5" r="22.5"/>
<ellipse fill="#EAE9CA" cx="205.823" cy="403.5" rx="19" ry="18.5"/>
<ellipse fill="#EAE9CA" cx="222.323" cy="323.855" rx="13.5" ry="13.145"/>
</svg>
